<?xml version="1.0" encoding="UTF-8"?>
<svg xmlns="http://www.w3.org/2000/svg" viewBox="0 0 64 64" width="64" height="64">
  <rect width="64" height="64" rx="12" fill="#d8f3dc"/>
  <path d="M32,14 C28,14 26,18 26,22 C26,26 28,28 28,30 L28,34 L36,34 L36,30 C36,28 38,26 38,22 C38,18 36,14 32,14 Z" fill="#40916c"/>
  <path d="M28,34 L36,34 L36,40 C36,42 34,44 32,44 C30,44 28,42 28,40 Z" fill="#e76f51"/>
  <rect x="30" y="38" width="4" height="6" rx="2" fill="#d62828"/>
  <rect x="20" y="24" width="4" height="2" rx="1" fill="#40916c"/>
  <rect x="40" y="24" width="4" height="2" rx="1" fill="#40916c"/>
  <rect x="20" y="28" width="3" height="2" rx="1" fill="#95d5b2"/>
  <rect x="41" y="28" width="3" height="2" rx="1" fill="#95d5b2"/>
</svg>